<svg width="46" height="46" viewBox="0 0 46 46" fill="none" xmlns="http://www.w3.org/2000/svg">
<path d="M43.4007 42.8032C42.6934 42.206 42.117 41.467 41.7081 40.633C41.4823 40.2198 41.2737 39.797 41.0541 39.3759C40.8086 38.9829 40.6124 38.5606 40.4702 38.1188C40.151 36.6682 40.0332 35.18 40.1199 33.6968C40.1204 33.5467 40.1334 33.3968 40.1588 33.2489C40.2305 32.9032 40.369 32.5748 40.4438 32.2259C40.6213 31.4182 40.9327 30.6545 41.1787 29.8688C41.3863 29.2056 41.5633 28.5335 41.7097 27.8526C42.0228 26.4047 42.216 24.9329 42.2874 23.4526C42.3657 21.9274 42.3104 20.3982 42.1223 18.8829C41.9417 17.3922 41.5976 15.9266 41.0962 14.5127C40.6188 13.1533 39.9435 11.8732 39.0922 10.7146C38.2467 9.57443 37.1935 8.60748 35.989 7.8656C35.6916 7.68331 35.3833 7.51517 35.0687 7.36274C26.369 3.45037 16.8864 1.63516 7.37146 2.06075C6.04531 2.0799 4.73785 2.37913 3.53326 2.93917C-0.116538 4.89088 -0.261346 10.0892 0.560791 14.1749C1.40533 18.3714 2.73969 22.4519 4.53602 26.3315C5.85622 29.6055 7.98287 32.4853 10.7145 34.6978C17.0004 39.2423 25.7154 37.1539 33.2423 38.9406C34.2248 39.1748 35.2011 39.478 36.1774 39.797H36.2163C37.3262 40.3899 38.3461 41.1403 39.2448 42.0253C39.5282 42.2658 39.8163 42.4968 40.1121 42.723C40.3894 42.941 40.6812 43.1395 40.9856 43.317C42.2374 43.901 43.612 44.1659 44.9889 44.0886C45.2906 44.1282 45.5965 44.055 45.8484 43.8828C44.9699 43.6895 44.1379 43.3225 43.4007 42.8032Z" fill="#ED1B36"/>
<path d="M31.7078 10.1237V14.3524H25.7909V32.1096H20.4968V14.3524H14.6406V10.1237H31.7078Z" fill="white"/>
</svg>
