<?xml version="1.0" encoding="UTF-8"?>
<svg xmlns="http://www.w3.org/2000/svg" xmlns:xlink="http://www.w3.org/1999/xlink" width="200px" height="38px" viewBox="0 0 198 38" version="1.1">
<g id="surface1">
<path style=" stroke:none;fill-rule:nonzero;fill:rgb(92.941177%,10.588235%,21.176471%);fill-opacity:1;" d="M 38.402344 36.160156 C 37.789062 35.644531 37.285156 35.003906 36.929688 34.285156 C 36.734375 33.925781 36.550781 33.5625 36.363281 33.199219 C 36.148438 32.859375 35.976562 32.496094 35.855469 32.113281 C 35.578125 30.859375 35.472656 29.574219 35.550781 28.292969 C 35.550781 28.164062 35.5625 28.035156 35.582031 27.90625 C 35.644531 27.609375 35.765625 27.324219 35.832031 27.023438 C 35.984375 26.324219 36.257812 25.667969 36.46875 24.988281 C 36.652344 24.414062 36.804688 23.835938 36.933594 23.246094 C 37.203125 21.996094 37.371094 20.726562 37.433594 19.445312 C 37.503906 18.128906 37.453125 16.808594 37.289062 15.5 C 37.132812 14.210938 36.835938 12.945312 36.398438 11.726562 C 35.984375 10.550781 35.394531 9.445312 34.65625 8.445312 C 33.921875 7.460938 33.003906 6.625 31.957031 5.984375 C 31.699219 5.828125 31.429688 5.683594 31.15625 5.550781 C 23.589844 2.171875 15.34375 0.605469 7.070312 0.972656 C 5.917969 0.988281 4.78125 1.246094 3.730469 1.730469 C 0.558594 3.414062 0.433594 7.90625 1.148438 11.433594 C 1.882812 15.058594 3.042969 18.582031 4.605469 21.933594 C 5.75 24.761719 7.601562 27.246094 9.976562 29.160156 C 15.445312 33.082031 23.023438 31.28125 29.566406 32.824219 C 30.421875 33.023438 31.273438 33.285156 32.121094 33.5625 L 32.15625 33.5625 C 33.121094 34.074219 34.007812 34.722656 34.789062 35.488281 C 35.035156 35.695312 35.285156 35.894531 35.542969 36.089844 C 35.785156 36.277344 36.039062 36.449219 36.300781 36.601562 C 37.390625 37.105469 38.585938 37.335938 39.785156 37.269531 C 40.046875 37.300781 40.3125 37.238281 40.53125 37.089844 C 39.765625 36.925781 39.042969 36.605469 38.402344 36.160156 Z M 38.402344 36.160156 "/>
<path style=" stroke:none;fill-rule:nonzero;fill:rgb(93.333334%,12.54902%,22.352941%);fill-opacity:1;" d="M 47.332031 15.605469 C 47.960938 15.996094 48.453125 16.570312 48.75 17.25 L 48.75 15.144531 L 52.285156 15.144531 L 52.285156 26.78125 L 48.75 26.78125 L 48.75 24.675781 C 48.457031 25.359375 47.960938 25.9375 47.332031 26.328125 C 46.640625 26.746094 45.847656 26.957031 45.042969 26.933594 C 44.132812 26.949219 43.238281 26.699219 42.46875 26.214844 C 41.6875 25.707031 41.066406 24.984375 40.679688 24.136719 C 40.222656 23.144531 40 22.0625 40.023438 20.96875 C 39.996094 19.871094 40.222656 18.785156 40.679688 17.789062 C 41.070312 16.945312 41.691406 16.230469 42.46875 15.722656 C 43.238281 15.238281 44.132812 14.988281 45.042969 15.003906 C 45.847656 14.980469 46.640625 15.191406 47.332031 15.605469 Z M 44.351562 18.882812 C 43.859375 19.460938 43.609375 20.207031 43.652344 20.96875 C 43.609375 21.726562 43.859375 22.472656 44.351562 23.050781 C 44.84375 23.539062 45.507812 23.808594 46.195312 23.804688 C 46.886719 23.800781 47.546875 23.523438 48.035156 23.03125 C 48.53125 22.460938 48.789062 21.71875 48.75 20.964844 C 48.792969 20.203125 48.535156 19.457031 48.03125 18.886719 C 47.796875 18.636719 47.511719 18.4375 47.191406 18.308594 C 46.875 18.175781 46.535156 18.113281 46.191406 18.125 C 45.847656 18.109375 45.503906 18.171875 45.183594 18.300781 C 44.867188 18.429688 44.582031 18.628906 44.34375 18.878906 Z M 44.351562 18.882812 "/>
<path style=" stroke:none;fill-rule:nonzero;fill:rgb(93.333334%,12.54902%,22.352941%);fill-opacity:1;" d="M 58.300781 11.347656 L 58.300781 26.78125 L 54.742188 26.78125 L 54.742188 11.347656 Z M 58.300781 11.347656 "/>
<path style=" stroke:none;fill-rule:nonzero;fill:rgb(93.333334%,12.54902%,22.352941%);fill-opacity:1;" d="M 67.785156 26.78125 L 64.308594 21.839844 L 64.308594 26.78125 L 60.75 26.78125 L 60.75 11.347656 L 64.308594 11.347656 L 64.308594 19.8125 L 67.785156 15.140625 L 71.96875 15.140625 L 67.285156 20.964844 L 72.070312 26.78125 Z M 67.785156 26.78125 "/>
<path style=" stroke:none;fill-rule:nonzero;fill:rgb(93.333334%,12.54902%,22.352941%);fill-opacity:1;" d="M 73.617188 10.523438 C 74.054688 10.179688 74.597656 9.992188 75.15625 9.992188 C 75.714844 9.992188 76.257812 10.179688 76.695312 10.523438 C 76.886719 10.691406 77.035156 10.902344 77.136719 11.132812 C 77.238281 11.363281 77.285156 11.617188 77.277344 11.871094 C 77.285156 12.121094 77.234375 12.367188 77.132812 12.597656 C 77.035156 12.824219 76.882812 13.027344 76.695312 13.195312 C 76.257812 13.539062 75.714844 13.726562 75.15625 13.726562 C 74.597656 13.726562 74.054688 13.539062 73.617188 13.195312 C 73.429688 13.027344 73.277344 12.824219 73.179688 12.597656 C 73.078125 12.367188 73.027344 12.121094 73.03125 11.871094 C 73.027344 11.617188 73.074219 11.363281 73.175781 11.132812 C 73.277344 10.898438 73.425781 10.691406 73.617188 10.523438 Z M 76.925781 15.140625 L 76.925781 26.777344 L 73.367188 26.777344 L 73.367188 15.144531 Z M 76.925781 15.140625 "/>
<path style=" stroke:none;fill-rule:nonzero;fill:rgb(93.333334%,12.54902%,22.352941%);fill-opacity:1;" d="M 89.914062 16.355469 C 90.746094 17.386719 91.164062 18.695312 91.085938 20.023438 L 91.085938 26.78125 L 87.53125 26.78125 L 87.53125 20.441406 C 87.574219 19.777344 87.351562 19.121094 86.917969 18.617188 C 86.710938 18.398438 86.457031 18.226562 86.175781 18.109375 C 85.894531 17.996094 85.589844 17.945312 85.285156 17.960938 C 84.96875 17.945312 84.648438 17.996094 84.351562 18.117188 C 84.058594 18.234375 83.789062 18.417969 83.570312 18.648438 C 83.117188 19.195312 82.886719 19.898438 82.933594 20.609375 L 82.933594 26.78125 L 79.375 26.78125 L 79.375 15.144531 L 82.933594 15.144531 L 82.933594 17.273438 C 83.257812 16.585938 83.777344 16.015625 84.425781 15.625 C 85.125 15.210938 85.929688 15 86.742188 15.019531 C 87.335938 14.992188 87.929688 15.101562 88.476562 15.332031 C 89.023438 15.5625 89.515625 15.910156 89.914062 16.355469 Z M 89.914062 16.355469 "/>
<path style=" stroke:none;fill-rule:nonzero;fill:rgb(93.333334%,12.54902%,22.352941%);fill-opacity:1;" d="M 100.144531 15.605469 C 100.769531 15.996094 101.265625 16.570312 101.558594 17.25 L 101.558594 15.144531 L 105.09375 15.144531 L 105.09375 26.71875 C 105.109375 27.730469 104.898438 28.734375 104.472656 29.652344 C 104.054688 30.519531 103.386719 31.242188 102.554688 31.726562 C 101.578125 32.269531 100.46875 32.535156 99.351562 32.496094 C 97.851562 32.574219 96.371094 32.136719 95.152344 31.257812 C 94.632812 30.847656 94.199219 30.335938 93.878906 29.761719 C 93.554688 29.183594 93.347656 28.546875 93.269531 27.886719 L 96.789062 27.886719 C 96.890625 28.34375 97.160156 28.738281 97.550781 28.992188 C 98.015625 29.277344 98.554688 29.414062 99.101562 29.390625 C 99.753906 29.417969 100.394531 29.191406 100.878906 28.753906 C 101.125 28.480469 101.3125 28.15625 101.429688 27.808594 C 101.546875 27.457031 101.589844 27.085938 101.558594 26.71875 L 101.558594 24.683594 C 101.265625 25.363281 100.769531 25.9375 100.144531 26.328125 C 99.453125 26.746094 98.660156 26.957031 97.855469 26.933594 C 96.945312 26.949219 96.050781 26.699219 95.28125 26.214844 C 94.5 25.707031 93.878906 24.988281 93.492188 24.136719 C 93.035156 23.144531 92.808594 22.0625 92.835938 20.96875 C 92.808594 19.871094 93.03125 18.785156 93.492188 17.789062 C 93.882812 16.945312 94.5 16.230469 95.28125 15.722656 C 96.050781 15.238281 96.945312 14.988281 97.855469 15.003906 C 98.660156 14.980469 99.453125 15.191406 100.144531 15.605469 Z M 97.164062 18.882812 C 96.671875 19.460938 96.421875 20.207031 96.46875 20.96875 C 96.421875 21.726562 96.671875 22.472656 97.164062 23.050781 C 97.65625 23.539062 98.320312 23.808594 99.011719 23.804688 C 99.699219 23.800781 100.359375 23.523438 100.847656 23.03125 C 101.34375 22.460938 101.597656 21.71875 101.558594 20.964844 C 101.597656 20.203125 101.339844 19.457031 100.839844 18.886719 C 100.605469 18.636719 100.316406 18.4375 100 18.308594 C 99.683594 18.175781 99.339844 18.113281 98.996094 18.125 C 98.65625 18.113281 98.3125 18.171875 97.996094 18.300781 C 97.679688 18.429688 97.394531 18.628906 97.15625 18.878906 Z M 97.164062 18.882812 "/>
<path style=" stroke:none;fill-rule:nonzero;fill:rgb(21.960784%,26.274511%,38.82353%);fill-opacity:1;" d="M 133.371094 7.933594 L 133.371094 26.78125 L 128.789062 26.78125 L 128.789062 14.992188 L 124.714844 26.78125 L 120.75 26.78125 L 116.652344 14.964844 L 116.652344 26.78125 L 112.070312 26.78125 L 112.070312 7.933594 L 117.675781 7.933594 L 122.792969 21.0625 L 127.800781 7.933594 Z M 133.371094 7.933594 "/>
<path style=" stroke:none;fill-rule:nonzero;fill:rgb(21.960784%,26.274511%,38.82353%);fill-opacity:1;" d="M 147.105469 21.609375 L 139.050781 21.609375 C 139.023438 22.300781 139.261719 22.976562 139.71875 23.496094 C 139.925781 23.6875 140.167969 23.839844 140.429688 23.9375 C 140.695312 24.035156 140.976562 24.082031 141.257812 24.070312 C 141.726562 24.089844 142.1875 23.949219 142.570312 23.675781 C 142.90625 23.421875 143.148438 23.0625 143.253906 22.652344 L 147.023438 22.652344 C 146.875 23.457031 146.53125 24.214844 146.023438 24.851562 C 145.5 25.507812 144.828125 26.027344 144.066406 26.375 C 143.167969 26.765625 142.191406 26.953125 141.214844 26.925781 C 140.234375 26.898438 139.269531 26.652344 138.394531 26.210938 C 137.519531 25.734375 136.800781 25.011719 136.324219 24.132812 C 135.808594 23.160156 135.550781 22.066406 135.578125 20.964844 C 135.546875 19.859375 135.800781 18.761719 136.316406 17.78125 C 136.789062 16.90625 137.507812 16.1875 138.386719 15.71875 C 139.328125 15.246094 140.371094 15 141.421875 14.996094 C 142.476562 14.996094 143.519531 15.238281 144.464844 15.707031 C 145.316406 16.160156 146.023438 16.851562 146.492188 17.699219 C 146.984375 18.605469 147.234375 19.621094 147.210938 20.652344 C 147.207031 20.972656 147.171875 21.292969 147.105469 21.609375 Z M 143 18.386719 C 142.566406 18.003906 142.003906 17.796875 141.425781 17.8125 C 140.832031 17.792969 140.25 18 139.800781 18.398438 C 139.34375 18.847656 139.082031 19.464844 139.070312 20.105469 L 143.609375 20.105469 C 143.640625 19.792969 143.601562 19.476562 143.496094 19.179688 C 143.390625 18.882812 143.21875 18.613281 143 18.386719 Z M 143 18.386719 "/>
<path style=" stroke:none;fill-rule:nonzero;fill:rgb(21.960784%,26.274511%,38.82353%);fill-opacity:1;" d="M 155.632812 23.71875 L 155.632812 26.78125 L 154.03125 26.78125 C 152.886719 26.851562 151.753906 26.492188 150.859375 25.769531 C 150.441406 25.324219 150.125 24.796875 149.929688 24.21875 C 149.734375 23.640625 149.664062 23.03125 149.722656 22.421875 L 149.722656 18.148438 L 148.164062 18.148438 L 148.164062 15.144531 L 149.722656 15.144531 L 149.722656 12.289062 L 153.285156 12.289062 L 153.285156 15.144531 L 155.617188 15.144531 L 155.617188 18.148438 L 153.285156 18.148438 L 153.285156 22.492188 C 153.265625 22.660156 153.28125 22.832031 153.328125 23 C 153.378906 23.164062 153.460938 23.316406 153.566406 23.449219 C 153.835938 23.660156 154.175781 23.753906 154.515625 23.722656 Z M 155.632812 23.71875 "/>
<path style=" stroke:none;fill-rule:nonzero;fill:rgb(21.960784%,26.274511%,38.82353%);fill-opacity:1;" d="M 168.167969 16.355469 C 169.003906 17.386719 169.421875 18.695312 169.34375 20.023438 L 169.34375 26.78125 L 165.785156 26.78125 L 165.785156 20.441406 C 165.824219 19.777344 165.605469 19.121094 165.171875 18.617188 C 164.964844 18.398438 164.707031 18.226562 164.425781 18.109375 C 164.144531 17.996094 163.84375 17.945312 163.539062 17.960938 C 163.21875 17.945312 162.902344 17.996094 162.605469 18.117188 C 162.308594 18.234375 162.042969 18.417969 161.820312 18.648438 C 161.367188 19.195312 161.140625 19.898438 161.1875 20.609375 L 161.1875 26.78125 L 157.628906 26.78125 L 157.628906 11.347656 L 161.1875 11.347656 L 161.1875 17.273438 C 161.511719 16.585938 162.03125 16.015625 162.675781 15.625 C 163.378906 15.210938 164.183594 15 164.996094 15.019531 C 165.589844 14.992188 166.183594 15.097656 166.734375 15.328125 C 167.28125 15.558594 167.773438 15.910156 168.167969 16.355469 Z M 168.167969 16.355469 "/>
<path style=" stroke:none;fill-rule:nonzero;fill:rgb(21.960784%,26.274511%,38.82353%);fill-opacity:1;" d="M 180.222656 15.71875 C 181.121094 16.1875 181.863281 16.910156 182.363281 17.792969 C 182.902344 18.761719 183.171875 19.855469 183.144531 20.964844 C 183.171875 22.070312 182.902344 23.164062 182.363281 24.132812 C 181.863281 25.015625 181.121094 25.738281 180.222656 26.210938 C 179.257812 26.683594 178.199219 26.929688 177.125 26.929688 C 176.050781 26.929688 174.992188 26.683594 174.03125 26.210938 C 173.125 25.742188 172.378906 25.019531 171.875 24.132812 C 171.339844 23.164062 171.070312 22.070312 171.097656 20.964844 C 171.070312 19.855469 171.339844 18.761719 171.875 17.792969 C 172.378906 16.90625 173.125 16.1875 174.03125 15.71875 C 174.992188 15.246094 176.050781 14.996094 177.125 14.996094 C 178.199219 14.996094 179.257812 15.246094 180.222656 15.71875 Z M 175.414062 18.828125 C 174.914062 19.421875 174.664062 20.1875 174.71875 20.964844 C 174.664062 21.738281 174.914062 22.5 175.414062 23.089844 C 175.632812 23.328125 175.898438 23.515625 176.195312 23.640625 C 176.492188 23.765625 176.808594 23.828125 177.132812 23.820312 C 177.453125 23.828125 177.769531 23.765625 178.0625 23.640625 C 178.355469 23.515625 178.621094 23.328125 178.835938 23.089844 C 179.332031 22.496094 179.578125 21.734375 179.523438 20.964844 C 179.578125 20.1875 179.332031 19.425781 178.835938 18.828125 C 178.621094 18.585938 178.359375 18.398438 178.066406 18.269531 C 177.769531 18.140625 177.453125 18.078125 177.132812 18.085938 C 176.808594 18.078125 176.488281 18.140625 176.191406 18.269531 C 175.898438 18.398438 175.632812 18.585938 175.414062 18.828125 Z M 175.414062 18.828125 "/>
<path style=" stroke:none;fill-rule:nonzero;fill:rgb(21.960784%,26.274511%,38.82353%);fill-opacity:1;" d="M 191.695312 15.605469 C 192.320312 15.996094 192.808594 16.574219 193.089844 17.253906 L 193.089844 11.347656 L 196.648438 11.347656 L 196.648438 26.78125 L 193.09375 26.78125 L 193.09375 24.675781 C 192.8125 25.359375 192.328125 25.933594 191.699219 26.324219 C 191.011719 26.742188 190.21875 26.949219 189.410156 26.929688 C 188.503906 26.941406 187.609375 26.691406 186.839844 26.210938 C 186.058594 25.703125 185.4375 24.980469 185.050781 24.132812 C 184.59375 23.140625 184.367188 22.054688 184.394531 20.964844 C 184.367188 19.867188 184.589844 18.777344 185.050781 17.78125 C 185.441406 16.9375 186.058594 16.222656 186.839844 15.71875 C 187.609375 15.234375 188.503906 14.984375 189.410156 14.996094 C 190.214844 14.976562 191.007812 15.1875 191.695312 15.605469 Z M 188.710938 18.882812 C 188.214844 19.460938 187.964844 20.207031 188.011719 20.96875 C 187.964844 21.726562 188.21875 22.472656 188.710938 23.050781 C 189.203125 23.539062 189.863281 23.808594 190.554688 23.804688 C 191.246094 23.800781 191.90625 23.523438 192.390625 23.03125 C 192.890625 22.464844 193.148438 21.722656 193.109375 20.96875 C 193.152344 20.207031 192.894531 19.460938 192.390625 18.890625 C 192.15625 18.640625 191.871094 18.441406 191.550781 18.3125 C 191.234375 18.179688 190.894531 18.117188 190.550781 18.128906 C 190.207031 18.117188 189.867188 18.175781 189.550781 18.304688 C 189.230469 18.433594 188.945312 18.628906 188.710938 18.878906 Z M 188.710938 18.882812 "/>
<path style=" stroke:none;fill-rule:nonzero;fill:rgb(100%,100%,100%);fill-opacity:1;" d="M 28.234375 7.933594 L 28.234375 11.585938 L 23.085938 11.585938 L 23.085938 26.921875 L 18.484375 26.921875 L 18.484375 11.585938 L 13.390625 11.585938 L 13.390625 7.933594 Z M 28.234375 7.933594 "/>
</g>
</svg>
